<?xml version="1.0" encoding="UTF-8"?>
<svg id="svg2" xmlns="http://www.w3.org/2000/svg" viewBox="0 0 152.44 152.44">
  <defs>
    <style>
      .cls-1 {
        fill: #172144;
      }

      .cls-1, .cls-2 {
        stroke-width: 0px;
      }

      .cls-2 {
        fill: #fff;
      }
    </style>
  </defs>
  <path id="backgound_modem" class="cls-2" d="M91.23,66.18c0,8.54-6.93,15.47-15.47,15.47s-15.47-6.93-15.47-15.47,6.93-15.47,15.47-15.47,15.47,6.93,15.47,15.47"/>
  <rect id="backgound_modem_2" class="cls-2" x="91.72" y="101.93" width="57" height="37.73"/>
  <rect id="backgound_modem_1" class="cls-2" x="3.72" y="101.93" width="57" height="37.73"/>
  <g id="g10">
    <g id="g12">
      <g id="g14">
        <g id="g32">
          <path id="path34" class="cls-1" d="M23.35,71.45c-5.3-3.07-8.6-8.78-8.6-14.9,0-9.49,7.72-17.21,17.21-17.21.97,0,1.95.08,2.89.24l-.83,4.85c-.67-.11-1.36-.17-2.06-.17-6.78,0-12.29,5.51-12.29,12.29,0,4.37,2.35,8.45,6.15,10.65l-2.47,4.25Z"/>
        </g>
        <g id="g36">
          <path id="path38" class="cls-1" d="M33.86,50.23c-1.26-2.65-1.9-5.49-1.9-8.43,0-10.85,8.82-19.67,19.67-19.67,2.95,0,5.78.63,8.42,1.89l-2.11,4.44c-1.98-.94-4.1-1.41-6.31-1.41-8.13,0-14.75,6.62-14.75,14.75,0,2.21.48,4.34,1.42,6.32l-4.44,2.11Z"/>
        </g>
        <g id="g40">
          <path id="path42" class="cls-1" d="M56.67,32.18c-.08-.88-.12-1.77-.12-2.68,0-16.27,13.24-29.51,29.51-29.51,15.37,0,28.01,11.53,29.39,26.83l-4.9.44c-1.15-12.74-11.67-22.35-24.48-22.35-13.55,0-24.59,11.03-24.59,24.59,0,.75.03,1.5.1,2.24l-4.9.44Z"/>
        </g>
        <path id="path44" class="cls-1" d="M44.26,149.98h-4.92v-9.83h4.92v9.83Z"/>
        <path id="path46" class="cls-1" d="M24.59,149.98h-4.92v-9.83h4.92v9.83Z"/>
        <g id="g48">
          <path id="path50" class="cls-1" d="M122.94,100.81h-4.91v-24.59c0-4.07-3.31-7.38-7.38-7.38h-19.67v-4.92h19.67c6.78,0,12.29,5.51,12.29,12.29v24.59Z"/>
        </g>
        <g id="g52">
          <path id="path54" class="cls-1" d="M34.42,100.81h-4.92v-24.59c0-6.78,5.52-12.29,12.29-12.29h19.67v4.92h-19.67c-4.07,0-7.38,3.31-7.38,7.38v24.59Z"/>
        </g>
        <path id="path56" class="cls-1" d="M54.09,152.44H9.84v-4.92h44.26v4.92Z"/>
        <g id="g58">
          <path id="path60" class="cls-1" d="M7.38,103.27c-1.35,0-2.46,1.1-2.46,2.46v29.51c0,1.35,1.1,2.46,2.46,2.46h49.17c1.36,0,2.46-1.11,2.46-2.46v-29.51c0-1.36-1.11-2.46-2.46-2.46H7.38ZM56.55,142.61H7.38c-4.07,0-7.38-3.31-7.38-7.38v-29.51c0-4.07,3.31-7.37,7.38-7.37h49.17c4.07,0,7.38,3.31,7.38,7.37v29.51c0,4.07-3.31,7.38-7.38,7.38"/>
        </g>
        <path id="path62" class="cls-1" d="M61.47,132.77H2.46v-4.92h59.01v4.92Z"/>
        <path id="path64" class="cls-1" d="M132.77,149.98h-4.92v-9.83h4.92v9.83Z"/>
        <path id="path66" class="cls-1" d="M113.1,149.98h-4.92v-9.83h4.92v9.83Z"/>
        <path id="path68" class="cls-1" d="M142.61,152.44h-44.26v-4.92h44.26v4.92Z"/>
        <g id="g70">
          <path id="path72" class="cls-1" d="M95.89,103.27c-1.35,0-2.46,1.1-2.46,2.46v29.51c0,1.35,1.1,2.46,2.46,2.46h49.17c1.36,0,2.46-1.11,2.46-2.46v-29.51c0-1.36-1.1-2.46-2.46-2.46h-49.17ZM145.07,142.61h-49.17c-4.07,0-7.37-3.31-7.37-7.38v-29.51c0-4.07,3.31-7.37,7.37-7.37h49.17c4.07,0,7.37,3.31,7.37,7.37v29.51c0,4.07-3.31,7.38-7.37,7.38"/>
        </g>
        <path id="path74" class="cls-1" d="M149.98,132.77h-59.01v-4.92h59.01v4.92Z"/>
        <g id="g76">
          <path id="path78" class="cls-1" d="M76.22,54.09c-6.78,0-12.29,5.51-12.29,12.29s5.51,12.29,12.29,12.29,12.3-5.52,12.3-12.29-5.52-12.29-12.3-12.29M76.22,83.6c-9.48,0-17.21-7.72-17.21-17.21s7.72-17.21,17.21-17.21,17.21,7.72,17.21,17.21-7.72,17.21-17.21,17.21"/>
        </g>
        <g id="g84">
          <path id="path86" class="cls-1" d="M126.77,69.62l-2.74-4.09c5.48-3.66,8.75-9.78,8.75-16.36,0-10.85-8.82-19.67-19.67-19.67-5.97,0-11.55,2.66-15.3,7.31l-3.82-3.09c4.69-5.81,11.66-9.13,19.12-9.13,13.55,0,24.59,11.03,24.59,24.59,0,8.22-4.08,15.87-10.92,20.44"/>
        </g>
      </g>
    </g>
  </g>
</svg>