<?xml version="1.0" encoding="UTF-8" standalone="no"?>
<svg
   xmlns:dc="http://purl.org/dc/elements/1.1/"
   xmlns:cc="http://creativecommons.org/ns#"
   xmlns:rdf="http://www.w3.org/1999/02/22-rdf-syntax-ns#"
   xmlns:svg="http://www.w3.org/2000/svg"
   xmlns="http://www.w3.org/2000/svg"
   xmlns:sodipodi="http://sodipodi.sourceforge.net/DTD/sodipodi-0.dtd"
   xmlns:inkscape="http://www.inkscape.org/namespaces/inkscape"
   version="1.1"
   id="svg2"
   xml:space="preserve"
   width="380"
   height="153.33333"
   viewBox="0 0 380 153.33333"
   sodipodi:docname="SUNDATA.eps"><metadata
     id="metadata8"><rdf:RDF><cc:Work
         rdf:about=""><dc:format>image/svg+xml</dc:format><dc:type
           rdf:resource="http://purl.org/dc/dcmitype/StillImage" /></cc:Work></rdf:RDF></metadata><defs
     id="defs6" /><sodipodi:namedview
     pagecolor="#ffffff"
     bordercolor="#666666"
     borderopacity="1"
     objecttolerance="10"
     gridtolerance="10"
     guidetolerance="10"
     inkscape:pageopacity="0"
     inkscape:pageshadow="2"
     inkscape:window-width="640"
     inkscape:window-height="480"
     id="namedview4" /><g
     id="g10"
     inkscape:groupmode="layer"
     inkscape:label="ink_ext_XXXXXX"
     transform="matrix(1.3333333,0,0,-1.3333333,0,153.33333)"><g
       id="g12"
       transform="scale(0.1)"><path
         d="m 82.9805,536.43 c 0,11.425 4.8945,21.144 14.6914,29.148 9.7931,7.992 23.5121,11.996 41.1441,11.996 15.672,0 31.18,-3.019 46.528,-9.062 15.347,-6.043 30.855,-14.778 46.527,-26.203 l 32.332,45.55 c -17.633,14.039 -36.492,24.735 -56.578,32.082 -20.078,7.348 -42.691,11.02 -67.832,11.02 -16.977,0 -32.648,-2.371 -46.9375,-7.106 C 78.4922,619.121 66.2461,612.344 56.0391,603.527 45.8359,594.715 37.8359,584.188 31.957,571.938 c -5.7968,-12.243 -8.7343,-25.875 -8.7343,-40.895 0,-16 2.5351,-29.551 7.5937,-40.652 5.0625,-11.106 12.4922,-20.571 22.1211,-28.411 9.6328,-7.835 21.6328,-14.367 35.8398,-19.589 14.2817,-5.223 30.5277,-9.961 48.8907,-14.207 16.004,-3.914 28.984,-7.672 39.02,-11.262 9.964,-3.59 17.8,-7.426 23.593,-11.512 5.715,-4.078 9.637,-8.57 11.754,-13.469 2.121,-4.898 3.188,-10.445 3.188,-16.652 0,-13.387 -5.473,-23.996 -16.414,-31.836 -10.934,-7.836 -25.711,-11.754 -44.321,-11.754 -21.55,0 -40.812,3.836 -57.8005,11.512 -16.9766,7.672 -33.793,18.691 -50.4414,33.059 L 9.99609,333.168 C 30.5664,314.559 52.9375,300.762 77.1016,291.785 101.266,282.801 126.57,278.309 153.02,278.309 c 17.96,0 34.445,2.285 49.464,6.863 14.942,4.57 27.836,11.262 38.454,20.078 10.691,8.816 19.019,19.594 25.058,32.328 5.961,12.731 8.977,27.262 8.977,43.586 0,14.371 -2.368,26.859 -7.098,37.469 -4.734,10.617 -11.754,19.922 -20.898,27.918 -9.141,8 -20.735,14.781 -34.61,20.328 -13.879,5.555 -29.883,10.617 -47.836,15.187 -16.414,3.914 -29.879,7.668 -40.57,11.262 -10.617,3.594 -18.941,7.508 -25.0665,11.754 -6.039,4.246 -10.1992,8.816 -12.4882,13.715 -2.2852,4.894 -3.4258,10.781 -3.4258,17.633"
         style="fill:#383536;fill-opacity:1;fill-rule:nonzero;stroke:none"
         id="path14" /><path
         d="m 706.844,626.063 h -59.75 V 428.676 c 0,-31.672 -7.762,-55.504 -23.188,-71.504 -15.426,-16.004 -36.57,-24.004 -63.508,-24.004 -27.261,0 -48.566,8.324 -63.996,24.98 -15.429,16.653 -23.187,40.981 -23.187,72.977 v 194.938 h -59.75 V 428.676 c 0,-24.817 3.422,-46.61 10.285,-65.387 6.855,-18.777 16.648,-34.527 29.387,-47.262 12.734,-12.738 28.082,-22.289 46.035,-28.652 17.965,-6.367 38.043,-9.551 60.246,-9.551 22.531,0 42.859,3.184 60.984,9.551 18.114,6.363 33.543,15.996 46.282,28.898 12.734,12.899 22.609,28.973 29.632,48.247 7.016,19.257 10.528,41.625 10.528,67.097 v 194.446"
         style="fill:#383536;fill-opacity:1;fill-rule:nonzero;stroke:none"
         id="path16" /><path
         d="M 1101.5,389.004 918.23,626.063 H 862.473 V 283.211 h 59.754 V 527.125 L 1110.88,283.211 h 50.37 V 626.063 H 1101.5 V 389.004"
         style="fill:#383536;fill-opacity:1;fill-rule:nonzero;stroke:none"
         id="path18" /><path
         d="m 1632.3,455.125 c 0,24.16 -4.41,46.695 -13.23,67.59 -8.81,20.902 -21.3,39.019 -37.46,54.367 -16.17,15.348 -35.43,27.344 -57.8,35.996 -22.37,8.656 -46.94,12.985 -73.71,12.985 H 1322.26 V 283.211 h 127.84 c 26.77,0 51.34,4.41 73.71,13.223 22.37,8.816 41.63,20.894 57.8,36.242 16.16,15.347 28.65,33.554 37.46,54.617 8.82,21.059 13.23,43.668 13.23,67.832 z m -63.19,-0.98 c 0,-17.059 -2.86,-32.735 -8.56,-46.934 -5.72,-14.289 -13.8,-26.613 -24.09,-36.898 -10.28,-10.372 -22.85,-18.368 -37.55,-24.165 -14.77,-5.714 -31.1,-8.57 -49.14,-8.57 h -67.75 v 234.117 h 67.75 c 18.04,0 34.37,-2.937 49.14,-8.816 14.7,-5.957 27.27,-14.121 37.55,-24.652 10.29,-10.45 18.37,-22.86 24.09,-37.141 5.7,-14.207 8.56,-29.879 8.56,-46.941"
         style="fill:#383536;fill-opacity:1;fill-rule:nonzero;stroke:none"
         id="path20" /><path
         d="m 1931.93,628.508 h -55.84 L 1725.23,283.211 h 61.72 c 51,119.715 59.43,141.133 116.08,273.301 60.44,-139.864 59.91,-139.602 116.08,-273.301 h 63.67 l -150.85,345.297"
         style="fill:#383536;fill-opacity:1;fill-rule:nonzero;stroke:none"
         id="path22" /><path
         d="m 2315.3,570.227 h 108.74 v 55.836 h -278.2 v -55.836 h 108.73 V 283.211 h 60.73 v 287.016"
         style="fill:#383536;fill-opacity:1;fill-rule:nonzero;stroke:none"
         id="path24" /><path
         d="M 2577.57,490.289 2487.1,283.211 h 61.71 c 39.77,93.352 49.4,116.687 69.03,163.031 l -8.83,9.895 c -10.34,11.511 -20.82,22.902 -31.44,34.152"
         style="fill:#383536;fill-opacity:1;fill-rule:nonzero;stroke:none"
         id="path26" /><path
         d="m 1512.02,1076.78 c 414.02,-61.86 792.39,-259.905 1077.84,-558.335 13.62,-14.238 27.03,-28.703 40.22,-43.39 54.1,-60.258 104.54,-124.293 150.89,-191.844 h 63.67 l -150.85,345.297 h -55.84 l -22.61,-51.762 C 2333.36,870.91 1959.15,1066.27 1549.04,1126.14 1014.69,1204.15 472.973,1044.36 66.5156,688.82 473.613,1013.18 997.223,1153.71 1512.02,1076.78 Z m 1183.25,-590.753 -1.53,3.536 v 0.003 -0.003 l 2.56,-3.04 -2.55,3.032 z m -1.53,3.536 0.01,-0.008 z m 0,0.003 c -12.63,14.977 -25.48,29.735 -38.56,44.274 3.04,7.101 6.27,14.64 9.71,22.672 11.24,-26 20.62,-47.774 28.85,-66.946"
         style="fill:#2491eb;fill-opacity:1;fill-rule:evenodd;stroke:none"
         id="path28" /><path
         d="m 97.9492,86.5313 c 0,5.8437 -1,11.0898 -3,15.7387 -2,4.652 -4.8711,8.656 -8.6015,12.011 -3.7344,3.356 -8.2813,5.922 -13.6289,7.711 -5.3555,1.781 -11.3321,2.672 -17.9336,2.672 H 9.99609 V 11.0742 H 29.793 v 36.5117 h 22.6133 c 6.3007,0 12.1953,0.8399 17.7421,2.5196 5.5118,1.6718 10.3321,4.1328 14.4688,7.3789 4.1133,3.2461 7.3594,7.3008 9.7656,12.1719 2.3789,4.8671 3.5664,10.496 3.5664,16.875 z M 77.6641,86.1289 c 0,-6.1992 -2.1875,-11.1719 -6.5938,-14.9023 C 66.6836,67.4648 60.6797,65.5938 53.0781,65.5938 H 29.793 v 41.0622 h 23.2851 c 7.4961,0 13.4727,-1.707 17.9102,-5.144 4.4609,-3.4065 6.6758,-8.5432 6.6758,-15.3831 z M 296.125,68.0313 c 0,8.0078 -1.457,15.5781 -4.383,22.7226 -2.918,7.1406 -6.98,13.3551 -12.168,18.6641 -5.195,5.297 -11.414,9.492 -18.664,12.574 -7.246,3.082 -15.254,4.621 -24.015,4.621 -8.766,0 -16.774,-1.566 -24.024,-4.703 -7.246,-3.14 -13.516,-7.387 -18.82,-12.742 -5.301,-5.352 -9.414,-11.6016 -12.332,-18.7422 -2.918,-7.1406 -4.383,-14.7149 -4.383,-22.7188 0,-8.0078 1.465,-15.5781 4.383,-22.7148 2.918,-7.1406 6.98,-13.3633 12.172,-18.6641 5.191,-5.2968 11.41,-9.4922 18.66,-12.5742 7.246,-3.0859 15.254,-4.6289 24.015,-4.6289 8.766,0 16.774,1.5703 24.024,4.707 7.246,3.1368 13.515,7.3828 18.82,12.7383 5.301,5.3594 9.414,11.6055 12.332,18.7422 2.926,7.1406 4.383,14.7148 4.383,22.7188 z M 275.191,67.707 c 0,-5.5195 -0.945,-10.7382 -2.836,-15.6601 -1.898,-4.9219 -4.519,-9.1914 -7.875,-12.8203 -3.355,-3.6172 -7.382,-6.4883 -12.089,-8.5977 -4.703,-2.1094 -9.871,-3.168 -15.496,-3.168 -5.625,0 -10.821,1.0821 -15.582,3.2461 -4.762,2.1641 -8.844,5.086 -12.25,8.7657 -3.407,3.6796 -6.059,7.9765 -7.95,12.8984 -1.898,4.9219 -2.84,10.1406 -2.84,15.6602 0,5.5195 0.942,10.7382 2.84,15.6601 1.891,4.9219 4.512,9.1953 7.867,12.8203 3.356,3.6253 7.387,6.4883 12.09,8.5973 4.707,2.114 9.875,3.168 15.496,3.168 5.629,0 10.821,-1.082 15.582,-3.246 4.762,-2.164 8.844,-5.0857 12.254,-8.7654 3.407,-3.6797 6.055,-7.9765 7.953,-12.8984 1.891,-4.9219 2.836,-10.1406 2.836,-15.6602 z M 418.023,40.4453 390.926,124.664 H 369.344 L 408.941,10.2617 h 17.2 l 27.91,81.625 27.91,-81.625 H 499.16 L 538.758,124.664 H 517.824 L 490.727,40.4453 462.816,124.996 H 445.934 Z M 707.238,124.664 H 623.176 V 11.0742 h 84.871 v 18.0156 h -65.074 v 30.3399 h 56.957 v 18.0117 h -56.957 v 29.2146 h 64.265 z M 892.266,11.0742 861.594,54.0781 c 4.004,1.0821 7.656,2.6211 10.953,4.6211 3.301,2 6.141,4.4375 8.519,7.3086 2.379,2.8633 4.247,6.1641 5.602,9.8985 1.352,3.7304 2.023,7.9765 2.023,12.7343 0,5.5196 -0.972,10.5274 -2.921,15.0114 -1.946,4.493 -4.731,8.274 -8.356,11.356 -3.625,3.086 -8.055,5.469 -13.301,7.148 -5.246,1.668 -11.121,2.508 -17.613,2.508 H 795.875 V 11.0742 h 19.793 v 39.5977 h 25.074 L 868.734,11.0742 Z M 868.41,87.5898 c 0,-5.871 -2.113,-10.5507 -6.359,-14.0117 -4.215,-3.4883 -9.926,-5.2226 -17.09,-5.2226 h -29.293 v 38.3005 h 29.125 c 7.492,0 13.312,-1.597 17.422,-4.82 4.14,-3.1837 6.195,-7.9493 6.195,-14.2462 z m 252.86,37.0742 h -19.79 V 59.2656 c 0,-10.4922 -2.57,-18.3867 -7.69,-23.6875 -5.11,-5.3047 -12.11,-7.957 -21.04,-7.957 -9.03,0 -16.09,2.7617 -21.2,8.2812 -5.11,5.5196 -7.69,13.5743 -7.69,24.1797 v 64.582 h -19.79 V 59.2656 c 0,-8.2187 1.13,-15.4375 3.41,-21.6562 2.27,-6.2266 5.52,-11.4453 9.73,-15.668 4.22,-4.2148 9.31,-7.3789 15.25,-9.4922 5.96,-2.1054 12.61,-3.16404 19.97,-3.16404 7.46,0 14.2,1.05864 20.2,3.16404 6.01,2.1133 11.12,5.3047 15.33,9.5821 4.22,4.2695 7.5,9.5976 9.82,15.9843 2.33,6.3789 3.49,13.7891 3.49,22.2266 z m 179.35,-38.1327 c 0,5.8437 -1,11.0898 -3,15.7387 -2,4.652 -4.87,8.656 -8.6,12.011 -3.73,3.356 -8.28,5.922 -13.63,7.711 -5.36,1.781 -11.34,2.672 -17.94,2.672 h -44.78 V 11.0742 h 19.79 v 36.5117 h 22.61 c 6.31,0 12.2,0.8399 17.75,2.5196 5.51,1.6718 10.33,4.1328 14.47,7.3789 4.11,3.2461 7.35,7.3008 9.76,12.1719 2.38,4.8671 3.57,10.496 3.57,16.875 z m -20.29,-0.4024 c 0,-6.1992 -2.18,-11.1719 -6.59,-14.9023 -4.38,-3.7618 -10.39,-5.6328 -17.99,-5.6328 h -23.29 v 41.0622 h 23.29 c 7.5,0 13.47,-1.707 17.91,-5.144 4.46,-3.4065 6.67,-8.5432 6.67,-15.3831 z m 201.43,20.0351 h 36.03 v 18.5 h -92.18 v -18.5 h 36.03 V 11.0742 h 20.12 z M 1677.17,58.9414 V 11.0742 h 19.8 V 124.664 h -19.8 V 77.4414 h -54.52 v 47.2226 h -19.8 V 11.0742 h 19.8 v 47.8672 z m 197.04,65.7226 h -84.05 V 11.0742 h 84.86 v 18.0156 h -65.07 v 30.3399 h 56.96 v 18.0117 h -56.96 v 29.2146 h 64.26 z m 236.15,-95.414 -12.82,12.9805 c -4.87,-4.543 -9.79,-8.1407 -14.77,-10.7891 -4.98,-2.6523 -10.92,-3.9805 -17.85,-3.9805 -5.4,0 -10.41,1.0586 -15.01,3.168 -4.6,2.1094 -8.57,5 -11.93,8.6797 -3.35,3.6797 -5.94,7.9766 -7.78,12.9023 -1.84,4.9219 -2.76,10.1993 -2.76,15.8204 0,5.6289 0.92,10.875 2.76,15.7382 1.84,4.8711 4.43,9.1172 7.78,12.7422 3.36,3.6253 7.33,6.4883 11.93,8.5973 4.6,2.114 9.61,3.168 15.01,3.168 6.49,0 12.28,-1.297 17.37,-3.894 5.08,-2.598 9.9,-6.0041 14.44,-10.2228 l 12.82,14.7618 c -2.7,2.601 -5.57,4.98 -8.6,7.148 -3.03,2.16 -6.33,4.024 -9.9,5.59 -3.57,1.574 -7.49,2.793 -11.77,3.66 -4.27,0.86 -9,1.293 -14.19,1.293 -8.66,0 -16.55,-1.539 -23.7,-4.621 -7.14,-3.082 -13.3,-7.304 -18.5,-12.664 -5.19,-5.351 -9.22,-11.5975 -12.09,-18.7421 -2.86,-7.1367 -4.3,-14.7617 -4.3,-22.8789 0,-8.2187 1.46,-15.9023 4.38,-23.0429 2.92,-7.1446 6.95,-13.3321 12.09,-18.5782 5.14,-5.2461 11.23,-9.3906 18.26,-12.414 7.03,-3.0313 14.72,-4.5469 23.05,-4.5469 5.29,0 10.13,0.46094 14.52,1.3828 4.38,0.918 8.41,2.2735 12.09,4.0547 3.68,1.7852 7.11,3.8945 10.3,6.3281 3.19,2.4336 6.25,5.2188 9.17,8.3594 z m 84.9,-18.1758 h 79.51 v 18.0156 h -59.71 v 95.5742 h -19.8 z m 271.69,56.9571 c 0,8.0078 -1.46,15.5781 -4.39,22.7226 -2.92,7.1406 -6.98,13.3551 -12.17,18.6641 -5.19,5.297 -11.41,9.492 -18.66,12.574 -7.25,3.082 -15.25,4.621 -24.02,4.621 -8.76,0 -16.77,-1.566 -24.02,-4.703 -7.24,-3.14 -13.51,-7.387 -18.82,-12.742 -5.3,-5.352 -9.41,-11.6016 -12.33,-18.7422 -2.92,-7.1406 -4.38,-14.7149 -4.38,-22.7188 0,-8.0078 1.46,-15.5781 4.38,-22.7148 2.92,-7.1406 6.98,-13.3633 12.17,-18.6641 5.19,-5.2968 11.41,-9.4922 18.66,-12.5742 7.25,-3.0859 15.25,-4.6289 24.02,-4.6289 8.76,0 16.77,1.5703 24.02,4.707 7.24,3.1368 13.52,7.3828 18.82,12.7383 5.3,5.3594 9.41,11.6055 12.33,18.7422 2.93,7.1406 4.39,14.7148 4.39,22.7188 z m -20.94,-0.3243 c 0,-5.5195 -0.94,-10.7382 -2.84,-15.6601 -1.89,-4.9219 -4.52,-9.1914 -7.87,-12.8203 -3.35,-3.6172 -7.38,-6.4883 -12.09,-8.5977 -4.71,-2.1094 -9.87,-3.168 -15.5,-3.168 -5.62,0 -10.82,1.0821 -15.58,3.2461 -4.76,2.1641 -8.84,5.086 -12.25,8.7657 -3.41,3.6796 -6.06,7.9765 -7.95,12.8984 -1.89,4.9219 -2.84,10.1406 -2.84,15.6602 0,5.5195 0.95,10.7382 2.84,15.6601 1.89,4.9219 4.52,9.1953 7.87,12.8203 3.35,3.6253 7.39,6.4883 12.09,8.5973 4.71,2.114 9.87,3.168 15.5,3.168 5.63,0 10.81,-1.082 15.57,-3.246 4.77,-2.164 8.85,-5.0857 12.26,-8.7654 3.41,-3.6797 6.06,-7.9765 7.95,-12.8984 1.9,-4.9219 2.84,-10.1406 2.84,-15.6602 z m 204.5,56.957 h -19.8 V 59.2656 c 0,-10.4922 -2.57,-18.3867 -7.68,-23.6875 -5.11,-5.3047 -12.11,-7.957 -21.04,-7.957 -9.04,0 -16.1,2.7617 -21.21,8.2812 -5.1,5.5196 -7.68,13.5743 -7.68,24.1797 v 64.582 h -19.8 V 59.2656 c 0,-8.2187 1.14,-15.4375 3.41,-21.6562 2.28,-6.2266 5.52,-11.4453 9.74,-15.668 4.22,-4.2148 9.31,-7.3789 15.25,-9.4922 5.96,-2.1054 12.61,-3.16404 19.96,-3.16404 7.47,0 14.2,1.05864 20.21,3.16404 6,2.1133 11.11,5.3047 15.33,9.5821 4.22,4.2695 7.5,9.5976 9.82,15.9843 2.32,6.3789 3.49,13.7891 3.49,22.2266 z m 194.12,-56.6327 c 0,8.0078 -1.47,15.4726 -4.39,22.3945 -2.92,6.9219 -7.06,12.9262 -12.42,18.0122 -5.35,5.085 -11.73,9.062 -19.14,11.929 -7.41,2.867 -15.55,4.297 -24.43,4.297 H 2741.9 V 11.0742 h 42.35 c 8.88,0 17.02,1.4571 24.43,4.3789 7.41,2.9219 13.79,6.9219 19.14,12.0078 5.36,5.086 9.5,11.1211 12.42,18.0977 2.92,6.9766 4.39,14.4687 4.39,22.4727 z m -20.94,-0.3243 c 0,-5.6523 -0.95,-10.8476 -2.84,-15.5507 -1.89,-4.7305 -4.57,-8.8165 -7.98,-12.2227 -3.41,-3.4336 -7.57,-6.0859 -12.44,-8.0039 -4.89,-1.8984 -10.3,-2.8399 -16.28,-2.8399 h -22.45 v 77.5662 h 22.45 c 5.98,0 11.39,-0.98 16.28,-2.922 4.87,-1.976 9.03,-4.6793 12.44,-8.1676 3.41,-3.4648 6.09,-7.5703 7.98,-12.3125 1.89,-4.6992 2.84,-9.8945 2.84,-15.5469"
         style="fill:#383536;fill-opacity:1;fill-rule:nonzero;stroke:none"
         id="path30" /><path
         d="M 9.99609,211.984 H 2844.64 V 195.898 H 9.99609 v 16.086"
         style="fill:#2491eb;fill-opacity:1;fill-rule:evenodd;stroke:none"
         id="path32" /></g></g></svg>
